<mxfile host="65bd71144e">
    <diagram id="omuIUfPRqmwz5qhyfbMd" name="第1頁">
        <mxGraphModel dx="196" dy="171" grid="1" gridSize="10" guides="1" tooltips="1" connect="1" arrows="1" fold="1" page="1" pageScale="1" pageWidth="827" pageHeight="1169" math="0" shadow="0">
            <root>
                <mxCell id="0"/>
                <mxCell id="1" parent="0"/>
                <mxCell id="9" style="edgeStyle=none;html=1;entryX=0.5;entryY=0;entryDx=0;entryDy=0;fontColor=#000000;endArrow=none;endFill=0;dashed=1;strokeColor=#00FFFF;" edge="1" parent="1" source="2" target="8">
                    <mxGeometry relative="1" as="geometry"/>
                </mxCell>
                <mxCell id="2" value="&lt;font color=&quot;#000000&quot;&gt;&lt;u&gt;:InstanceA&lt;/u&gt;&lt;/font&gt;" style="rounded=0;whiteSpace=wrap;html=1;gradientColor=#00FFFF;fillColor=#FFFFFF;gradientDirection=east;strokeColor=#000000;" vertex="1" parent="1">
                    <mxGeometry x="110" y="60" width="120" height="60" as="geometry"/>
                </mxCell>
                <mxCell id="23" style="edgeStyle=none;html=1;entryX=0.5;entryY=0;entryDx=0;entryDy=0;dashed=1;strokeColor=#00FFFF;strokeWidth=1;fontColor=#FFFFFF;endArrow=none;endFill=0;" edge="1" parent="1" source="5" target="21">
                    <mxGeometry relative="1" as="geometry"/>
                </mxCell>
                <mxCell id="5" value="&lt;font color=&quot;#000000&quot;&gt;&lt;u&gt;:InstanceB&lt;/u&gt;&lt;/font&gt;" style="rounded=0;whiteSpace=wrap;html=1;gradientColor=#00FFFF;fillColor=#FFFFFF;gradientDirection=east;strokeColor=#000000;" vertex="1" parent="1">
                    <mxGeometry x="270" y="60" width="120" height="60" as="geometry"/>
                </mxCell>
                <mxCell id="33" style="edgeStyle=none;html=1;entryX=0.5;entryY=0;entryDx=0;entryDy=0;dashed=1;strokeColor=#00FFFF;strokeWidth=1;fontColor=#FFFFFF;endArrow=none;endFill=0;" edge="1" parent="1" source="6" target="32">
                    <mxGeometry relative="1" as="geometry"/>
                </mxCell>
                <mxCell id="6" value="&lt;font color=&quot;#000000&quot;&gt;&lt;u&gt;:InstanceC&lt;/u&gt;&lt;/font&gt;" style="rounded=0;whiteSpace=wrap;html=1;gradientColor=#00FFFF;fillColor=#FFFFFF;gradientDirection=east;strokeColor=#000000;" vertex="1" parent="1">
                    <mxGeometry x="430" y="60" width="120" height="60" as="geometry"/>
                </mxCell>
                <mxCell id="8" value="" style="rounded=0;whiteSpace=wrap;html=1;fontColor=#000000;fillColor=#FFFFFF;gradientColor=none;gradientDirection=east;strokeColor=#000000;" vertex="1" parent="1">
                    <mxGeometry x="160" y="180" width="20" height="160" as="geometry"/>
                </mxCell>
                <mxCell id="10" value="&lt;font color=&quot;#ffffff&quot;&gt;operation1( )&lt;/font&gt;" style="text;html=1;align=center;verticalAlign=middle;resizable=0;points=[];autosize=1;strokeColor=none;fillColor=none;fontColor=#000000;" vertex="1" parent="1">
                    <mxGeometry x="70" y="161" width="90" height="30" as="geometry"/>
                </mxCell>
                <mxCell id="11" value="" style="endArrow=classic;html=1;dashed=1;strokeColor=#00FFFF;fontColor=#FFFFFF;exitX=0;exitY=0.75;exitDx=0;exitDy=0;entryX=1;entryY=0.828;entryDx=0;entryDy=0;entryPerimeter=0;" edge="1" parent="1" source="22" target="8">
                    <mxGeometry width="50" height="50" relative="1" as="geometry">
                        <mxPoint x="270" y="320" as="sourcePoint"/>
                        <mxPoint x="320" y="270" as="targetPoint"/>
                    </mxGeometry>
                </mxCell>
                <mxCell id="12" value="" style="endArrow=classic;html=1;dashed=1;strokeColor=#00FFFF;fontColor=#FFFFFF;exitX=0;exitY=1;exitDx=0;exitDy=0;" edge="1" parent="1" source="8">
                    <mxGeometry width="50" height="50" relative="1" as="geometry">
                        <mxPoint x="60" y="350" as="sourcePoint"/>
                        <mxPoint x="70" y="340" as="targetPoint"/>
                    </mxGeometry>
                </mxCell>
                <mxCell id="14" value="" style="endArrow=classic;html=1;strokeColor=#00FFFF;fontColor=#FFFFFF;exitX=0.999;exitY=0.719;exitDx=0;exitDy=0;exitPerimeter=0;entryX=-0.011;entryY=0.169;entryDx=0;entryDy=0;entryPerimeter=0;" edge="1" parent="1" source="8" target="22">
                    <mxGeometry width="50" height="50" relative="1" as="geometry">
                        <mxPoint x="180.00000000000006" y="291" as="sourcePoint"/>
                        <mxPoint x="270" y="290" as="targetPoint"/>
                        <Array as="points"/>
                    </mxGeometry>
                </mxCell>
                <mxCell id="19" value="" style="endArrow=none;dashed=1;html=1;strokeWidth=1;strokeColor=#00FFFF;fontColor=#FFFFFF;" edge="1" parent="1">
                    <mxGeometry width="50" height="50" relative="1" as="geometry">
                        <mxPoint x="170" y="380" as="sourcePoint"/>
                        <mxPoint x="170" y="340" as="targetPoint"/>
                    </mxGeometry>
                </mxCell>
                <mxCell id="21" value="" style="rounded=0;whiteSpace=wrap;html=1;fontColor=#000000;fillColor=#FFFFFF;gradientColor=none;gradientDirection=east;strokeColor=#000000;" vertex="1" parent="1">
                    <mxGeometry x="320" y="191" width="20" height="69" as="geometry"/>
                </mxCell>
                <mxCell id="24" style="edgeStyle=none;html=1;entryX=0.5;entryY=1;entryDx=0;entryDy=0;dashed=1;strokeColor=#00FFFF;strokeWidth=1;fontColor=#FFFFFF;endArrow=none;endFill=0;" edge="1" parent="1" source="22" target="21">
                    <mxGeometry relative="1" as="geometry"/>
                </mxCell>
                <mxCell id="25" style="edgeStyle=none;html=1;dashed=1;strokeColor=#00FFFF;strokeWidth=1;fontColor=#FFFFFF;endArrow=none;endFill=0;" edge="1" parent="1" source="22">
                    <mxGeometry relative="1" as="geometry">
                        <mxPoint x="330" y="380" as="targetPoint"/>
                    </mxGeometry>
                </mxCell>
                <mxCell id="22" value="" style="rounded=0;whiteSpace=wrap;html=1;fontColor=#000000;fillColor=#FFFFFF;gradientColor=none;gradientDirection=east;strokeColor=#000000;" vertex="1" parent="1">
                    <mxGeometry x="320" y="290" width="20" height="30" as="geometry"/>
                </mxCell>
                <mxCell id="26" value="&lt;font color=&quot;#ffffff&quot;&gt;operation2( )&lt;/font&gt;" style="text;html=1;align=center;verticalAlign=middle;resizable=0;points=[];autosize=1;strokeColor=none;fillColor=none;fontColor=#000000;" vertex="1" parent="1">
                    <mxGeometry x="206" y="172" width="90" height="30" as="geometry"/>
                </mxCell>
                <mxCell id="29" value="" style="endArrow=classic;html=1;dashed=1;strokeColor=#00FFFF;fontColor=#FFFFFF;exitX=0;exitY=0.75;exitDx=0;exitDy=0;entryX=1;entryY=0.828;entryDx=0;entryDy=0;entryPerimeter=0;" edge="1" parent="1">
                    <mxGeometry width="50" height="50" relative="1" as="geometry">
                        <mxPoint x="320" y="255.01999999999998" as="sourcePoint"/>
                        <mxPoint x="180" y="255" as="targetPoint"/>
                    </mxGeometry>
                </mxCell>
                <mxCell id="30" value="" style="endArrow=classic;html=1;strokeColor=#00FFFF;fontColor=#FFFFFF;exitX=0.999;exitY=0.719;exitDx=0;exitDy=0;exitPerimeter=0;entryX=-0.011;entryY=0.169;entryDx=0;entryDy=0;entryPerimeter=0;" edge="1" parent="1">
                    <mxGeometry width="50" height="50" relative="1" as="geometry">
                        <mxPoint x="180.00000000000003" y="196.99999999999994" as="sourcePoint"/>
                        <mxPoint x="319.79999999999995" y="197.02999999999992" as="targetPoint"/>
                        <Array as="points"/>
                    </mxGeometry>
                </mxCell>
                <mxCell id="31" value="&lt;font color=&quot;#ffffff&quot;&gt;operation4( )&lt;/font&gt;" style="text;html=1;align=center;verticalAlign=middle;resizable=0;points=[];autosize=1;strokeColor=none;fillColor=none;fontColor=#000000;" vertex="1" parent="1">
                    <mxGeometry x="206" y="271" width="90" height="30" as="geometry"/>
                </mxCell>
                <mxCell id="43" style="edgeStyle=none;html=1;entryX=0.376;entryY=-0.01;entryDx=0;entryDy=0;entryPerimeter=0;dashed=1;strokeColor=#00FFFF;strokeWidth=1;fontSize=15;fontColor=#000000;endArrow=none;endFill=0;" edge="1" parent="1" source="32" target="42">
                    <mxGeometry relative="1" as="geometry"/>
                </mxCell>
                <mxCell id="32" value="" style="rounded=0;whiteSpace=wrap;html=1;fontColor=#000000;fillColor=#FFFFFF;gradientColor=none;gradientDirection=east;strokeColor=#000000;" vertex="1" parent="1">
                    <mxGeometry x="480" y="220" width="20" height="30" as="geometry"/>
                </mxCell>
                <mxCell id="35" value="" style="endArrow=classic;html=1;strokeColor=#00FFFF;fontColor=#FFFFFF;exitX=1;exitY=0.5;exitDx=0;exitDy=0;entryX=0.012;entryY=0.162;entryDx=0;entryDy=0;entryPerimeter=0;" edge="1" parent="1" source="21" target="32">
                    <mxGeometry width="50" height="50" relative="1" as="geometry">
                        <mxPoint x="340" y="225.07999999999998" as="sourcePoint"/>
                        <mxPoint x="479.79999999999995" y="225.10999999999996" as="targetPoint"/>
                        <Array as="points"/>
                    </mxGeometry>
                </mxCell>
                <mxCell id="36" value="" style="endArrow=classic;html=1;dashed=1;strokeColor=#00FFFF;fontColor=#FFFFFF;exitX=0;exitY=0.75;exitDx=0;exitDy=0;" edge="1" parent="1">
                    <mxGeometry width="50" height="50" relative="1" as="geometry">
                        <mxPoint x="480" y="240.01999999999998" as="sourcePoint"/>
                        <mxPoint x="340" y="240" as="targetPoint"/>
                    </mxGeometry>
                </mxCell>
                <mxCell id="37" value="&lt;font color=&quot;#ffffff&quot;&gt;operation3( )&lt;/font&gt;" style="text;html=1;align=center;verticalAlign=middle;resizable=0;points=[];autosize=1;strokeColor=none;fillColor=none;fontColor=#000000;" vertex="1" parent="1">
                    <mxGeometry x="368.5" y="200" width="90" height="30" as="geometry"/>
                </mxCell>
                <mxCell id="38" value="&lt;font style=&quot;font-size: 15px;&quot; color=&quot;#000000&quot;&gt;&amp;nbsp; &amp;nbsp; &amp;nbsp;回覆訊息&lt;br&gt;&amp;nbsp; &amp;nbsp; &amp;nbsp;物件生命線&lt;/font&gt;" style="shape=note;whiteSpace=wrap;html=1;backgroundOutline=1;darkOpacity=0.05;strokeColor=#000000;fontColor=#FFFFFF;fillColor=#808080;gradientColor=none;gradientDirection=east;align=left;size=14;" vertex="1" parent="1">
                    <mxGeometry x="191" y="340" width="120" height="70" as="geometry"/>
                </mxCell>
                <mxCell id="39" value="" style="endArrow=classic;html=1;dashed=1;strokeColor=#00FFFF;fontColor=#FFFFFF;exitX=0;exitY=1;exitDx=0;exitDy=0;" edge="1" parent="1">
                    <mxGeometry width="50" height="50" relative="1" as="geometry">
                        <mxPoint x="290" y="374.4099999999998" as="sourcePoint"/>
                        <mxPoint x="330" y="340" as="targetPoint"/>
                    </mxGeometry>
                </mxCell>
                <mxCell id="40" value="" style="endArrow=classic;html=1;dashed=1;strokeColor=#00FFFF;fontColor=#FFFFFF;exitX=0;exitY=1;exitDx=0;exitDy=0;" edge="1" parent="1">
                    <mxGeometry width="50" height="50" relative="1" as="geometry">
                        <mxPoint x="211" y="366.9999999999998" as="sourcePoint"/>
                        <mxPoint x="90" y="343" as="targetPoint"/>
                    </mxGeometry>
                </mxCell>
                <mxCell id="44" style="edgeStyle=none;html=1;entryX=0.671;entryY=0.995;entryDx=0;entryDy=0;entryPerimeter=0;dashed=1;strokeColor=#00FFFF;strokeWidth=1;fontSize=15;fontColor=#000000;endArrow=classic;endFill=1;" edge="1" parent="1" source="42" target="6">
                    <mxGeometry relative="1" as="geometry"/>
                </mxCell>
                <mxCell id="42" value="&lt;font style=&quot;font-size: 15px;&quot; color=&quot;#000000&quot;&gt;&amp;nbsp;程式中被建立的物件&lt;br&gt;&amp;nbsp;執行規格長條格&lt;br&gt;&amp;nbsp;訊息呼叫（操作）&lt;br&gt;&lt;/font&gt;" style="shape=note;whiteSpace=wrap;html=1;backgroundOutline=1;darkOpacity=0.05;strokeColor=#000000;fontColor=#FFFFFF;fillColor=#808080;gradientColor=none;gradientDirection=east;align=left;size=14;" vertex="1" parent="1">
                    <mxGeometry x="430" y="300" width="160" height="70" as="geometry"/>
                </mxCell>
                <mxCell id="45" value="" style="endArrow=classic;html=1;dashed=1;strokeColor=#00FFFF;fontColor=#FFFFFF;exitX=0;exitY=0.75;exitDx=0;exitDy=0;entryX=1;entryY=1;entryDx=0;entryDy=0;" edge="1" parent="1" target="21">
                    <mxGeometry width="50" height="50" relative="1" as="geometry">
                        <mxPoint x="436" y="334.4299999999999" as="sourcePoint"/>
                        <mxPoint x="296" y="334.4099999999999" as="targetPoint"/>
                    </mxGeometry>
                </mxCell>
                <mxCell id="46" value="" style="endArrow=classic;html=1;dashed=1;strokeColor=#00FFFF;fontColor=#FFFFFF;exitX=0;exitY=0.75;exitDx=0;exitDy=0;" edge="1" parent="1">
                    <mxGeometry width="50" height="50" relative="1" as="geometry">
                        <mxPoint x="436" y="354.4299999999997" as="sourcePoint"/>
                        <mxPoint x="290" y="300" as="targetPoint"/>
                    </mxGeometry>
                </mxCell>
                <mxCell id="47" value="" style="endArrow=classic;html=1;strokeColor=#00FFFF;fontColor=#FFFFFF;entryX=1;entryY=0.967;entryDx=0;entryDy=0;entryPerimeter=0;" edge="1" parent="1" target="10">
                    <mxGeometry width="50" height="50" relative="1" as="geometry">
                        <mxPoint x="70" y="190" as="sourcePoint"/>
                        <mxPoint x="159.99999999999994" y="191.02999999999997" as="targetPoint"/>
                        <Array as="points"/>
                    </mxGeometry>
                </mxCell>
            </root>
        </mxGraphModel>
    </diagram>
</mxfile>